PathFileType  4	(X/Y/Z) C:\Users\antoi\Documents\MyRepositories\mobilecap\ResultsAnalysis
DataRate	CameraRate	NumFrames	NumMarkers	Units	OrigDataRate	OrigDataStartFrame	OrigNumFrames
100.0	100.0	5	51	mm	100.0	674	1346
Frame#	Time	r_knee			r_shank_antsup			r_ankle			r_calc			r_5meta			r_toe			L_knee			L_shank_antsup			L_ankle			L_calc			L_5meta			L_toe			r_sh2			r_sh3			r_sh4			L_sh2			L_sh3			r_thigh1			r_thigh2			r_thigh3			r_thigh4			r_thigh5			L_thigh1			L_thigh2			L_thigh3			L_thigh4			r.ASIS			r.PSIS			L.ASIS			L.PSIS			C7			R_Shoulder			L_Shoulder			R_Sternum			L_Sternum			R_humerus			R_elbow_med			R_elbow_lat			R_forearm			R_wrist_radius			R_wrist_ulna			L_humerus			L_elbow_med			L_elbow_lat			L_forearm			L_wrist_radius			L_wrist_ulna			R_HJC			L_HJC			R_HJC_reg			L_HJC_reg			
		X1	Y1	Z1	X2	Y2	Z2	X3	Y3	Z3	X4	Y4	Z4	X5	Y5	Z5	X6	Y6	Z6	X7	Y7	Z7	X8	Y8	Z8	X9	Y9	Z9	X10	Y10	Z10	X11	Y11	Z11	X12	Y12	Z12	X13	Y13	Z13	X14	Y14	Z14	X15	Y15	Z15	X16	Y16	Z16	X17	Y17	Z17	X18	Y18	Z18	X19	Y19	Z19	X20	Y20	Z20	X21	Y21	Z21	X22	Y22	Z22	X23	Y23	Z23	X24	Y24	Z24	X25	Y25	Z25	X26	Y26	Z26	X27	Y27	Z27	X28	Y28	Z28	X29	Y29	Z29	X30	Y30	Z30	X31	Y31	Z31	X32	Y32	Z32	X33	Y33	Z33	X34	Y34	Z34	X35	Y35	Z35	X36	Y36	Z36	X37	Y37	Z37	X38	Y38	Z38	X39	Y39	Z39	X40	Y40	Z40	X41	Y41	Z41	X42	Y42	Z42	X43	Y43	Z43	X44	Y44	Z44	X45	Y45	Z45	X46	Y46	Z46	X47	Y47	Z47	X48	Y48	Z48	X49	Y49	Z49	X50	Y50	Z50	X51	Y51	Z51	

674	6.73000000	-124.41185	457.14823	-374.40792	-86.86173	360.52948	-372.45070	-275.79883	92.01459	-388.24728	-336.82841	57.24467	-438.62610	-162.31545	42.08210	-339.47282	-126.67165	73.09802	-390.90057	-123.43265	460.31285	-836.88039	-76.45220	368.82326	-830.88097	-263.53868	94.83692	-823.01035	-335.22854	49.77168	-769.30906	-164.42019	39.28232	-868.51690	-114.55194	67.95577	-819.31948	-137.46849	257.98502	-376.33996	-149.39298	386.86442	-340.33968	-205.50794	286.95721	-339.12429	-146.40679	414.06342	-866.92511	-200.18377	304.12548	-872.63297	-348.38065	608.19055	-399.60076	-247.60376	572.70675	-399.73127	-241.63757	515.95698	-360.19552	-387.26523	504.38941	-376.60171	-274.73270	470.97447	-374.52630	-311.66893	615.56576	-791.37453	-178.80820	574.69462	-796.46106	-347.43273	527.42927	-844.36081	-221.07629	481.98445	-837.58698	-319.65485	610.11927	-478.80251	-477.96384	726.59026	-557.60423	-326.77048	624.06391	-732.11270	-475.05161	727.27969	-651.49801	-150.49867	1030.99456	-590.87578	-73.59931	954.67606	-438.79549	-70.43836	953.31912	-727.56525	-78.49009	901.65462	-570.41827	-75.25814	906.81152	-609.79125	0.14262	874.56187	-393.64847	62.48208	665.08229	-400.07198	83.68856	695.74483	-341.84424	125.86988	771.74186	-383.19133	162.00360	866.66178	-514.27108	205.30127	857.64477	-489.31928	1.75862	866.17491	-778.26122	69.66926	658.27745	-778.30906	83.94362	708.22424	-831.24388	116.55699	767.78256	-795.56356	165.80391	871.61789	-673.97456	211.11093	854.37625	-695.85881	-428.18922	566.88510	-506.93219	-427.71706	574.39353	-696.34512	-421.63983	578.11515	-517.69807	-416.44817	579.34416	-685.11669	
675	6.74000000	-124.28564	457.08866	-374.68891	-86.74408	360.45403	-372.59686	-275.76984	92.05209	-388.30882	-336.83228	57.23226	-438.63211	-162.30012	42.06241	-339.45984	-126.66288	73.07978	-390.92990	-123.35914	460.23540	-836.95174	-76.37908	368.73401	-830.96272	-263.54870	94.80438	-823.04409	-335.28262	49.43149	-768.99143	-164.42657	39.26017	-868.52736	-114.56712	67.93670	-819.36505	-137.42653	258.01563	-376.38540	-149.33956	386.86266	-340.39732	-205.58833	287.01075	-339.14366	-146.15866	414.18732	-867.62910	-200.14343	303.99159	-872.61425	-348.26946	608.22469	-399.73326	-247.42309	572.82756	-399.99914	-241.37709	515.67127	-360.79115	-386.98090	504.38004	-377.02768	-274.55628	471.18295	-374.60500	-311.54465	615.54695	-791.52113	-178.74938	574.68996	-796.76740	-347.29528	527.50286	-844.60070	-220.97826	481.95051	-837.66222	-319.44317	610.33460	-478.95809	-477.87325	726.74531	-557.80961	-326.65963	624.23821	-732.57456	-475.11145	727.33707	-651.54064	-150.99393	1031.51307	-591.05495	-73.96342	955.42001	-439.01164	-70.86627	953.93508	-727.67680	-78.78080	902.34566	-570.73073	-75.57299	907.58421	-610.08826	0.05011	875.49589	-394.04208	62.90934	666.08069	-400.45337	84.07068	696.78231	-342.28629	126.13239	772.84166	-383.56496	162.00220	867.95597	-514.71147	205.26096	858.97664	-489.78557	1.51036	867.00576	-778.58320	68.66257	659.75818	-778.28429	83.91414	709.32674	-831.65031	116.66213	768.87309	-795.89586	165.70213	872.77220	-674.05312	210.68898	855.48969	-695.97950	-427.93637	567.01837	-507.11938	-427.62130	574.51553	-696.53329	-421.41550	578.34089	-517.71614	-416.47626	579.39916	-685.34602	
676	6.75000000	-124.11401	456.94295	-374.90871	-86.62535	360.44013	-372.71959	-275.73669	92.08426	-388.42811	-336.84469	57.20484	-438.63259	-162.29532	42.10106	-339.41779	-126.64954	73.07568	-390.94825	-123.27553	460.12384	-836.97413	-76.28516	368.68475	-831.05552	-263.53277	94.77108	-823.03828	-335.27376	49.38251	-768.96109	-164.43252	39.23466	-868.53876	-114.56912	67.92108	-819.38897	-137.36229	258.03683	-376.57174	-149.31085	386.86591	-340.46792	-205.23621	287.17514	-339.30952	-146.10051	414.05827	-867.77042	-200.10107	303.90576	-872.62333	-348.25604	608.55113	-399.78263	-246.89284	573.07925	-400.53438	-241.12181	515.76866	-360.89573	-386.72670	504.52861	-377.30111	-274.35160	471.33995	-374.81384	-311.35628	615.60625	-791.81742	-178.65677	574.65788	-796.89384	-347.15259	527.60311	-844.85094	-220.86612	481.95808	-837.78178	-319.23602	610.58822	-479.08001	-477.82279	727.00421	-558.08721	-326.47420	624.43719	-732.86570	-475.06202	727.70633	-651.94024	-151.52200	1032.17432	-591.20224	-74.28170	956.21546	-439.33701	-71.26639	954.69769	-727.81620	-79.12510	903.06548	-570.99543	-75.78850	908.44514	-610.21801	-0.03567	876.54074	-394.49831	63.28515	667.24521	-400.93273	84.41966	697.96049	-342.81990	126.33066	774.07836	-384.02441	161.98020	869.37738	-515.14517	205.19064	860.44554	-490.29434	1.30753	868.00049	-778.95927	68.69312	660.86286	-778.39942	84.00469	710.38894	-831.67972	116.79145	770.08009	-796.17508	165.51333	874.02927	-674.21711	210.43343	856.71700	-695.89136	-427.82733	567.31510	-507.36750	-427.46808	574.75632	-696.78358	-421.24617	578.36757	-517.91029	-416.31202	579.62136	-685.64833	
677	6.76000000	-123.87517	457.02220	-375.18020	-86.51951	360.47533	-372.86967	-275.71996	92.08225	-388.54224	-336.87338	57.18740	-438.64472	-162.29909	42.15657	-339.39756	-126.64825	73.07712	-390.95197	-123.17126	459.99565	-836.97835	-76.16884	368.65820	-831.17644	-263.51434	94.75325	-823.02148	-335.27035	49.43340	-769.07326	-164.43929	39.20665	-868.54101	-114.57239	67.91167	-819.40345	-137.29022	258.00878	-376.75495	-149.25116	386.89456	-340.60665	-205.34429	287.16576	-339.34832	-146.08781	413.92239	-867.78724	-200.07187	303.86852	-872.68388	-348.29824	609.01971	-399.79072	-246.08335	573.36369	-401.23767	-240.84782	515.90259	-361.06892	-386.50124	504.78905	-377.44672	-274.14064	471.39703	-375.23987	-311.14398	615.70578	-792.13614	-178.53612	574.64404	-797.00492	-347.04475	527.64945	-844.98986	-220.73653	482.00326	-837.95785	-319.03092	610.87508	-479.22893	-477.78959	727.32366	-558.39659	-326.22213	624.67659	-733.15703	-474.92771	728.24264	-652.48800	-152.03866	1033.01916	-591.42518	-74.63770	957.09770	-439.75252	-71.72855	955.63429	-728.00074	-79.46739	903.95358	-571.14739	-76.04926	909.39484	-610.29674	-0.16782	877.66150	-394.97123	63.81169	668.49150	-401.41695	84.76461	699.32140	-343.35660	126.46388	775.53450	-384.49909	161.93473	870.86902	-515.63861	205.12190	862.08808	-490.76170	1.07071	869.08710	-779.31520	69.99386	661.60922	-778.83751	84.18690	711.49674	-831.49165	116.92246	771.39436	-796.49762	165.27966	875.39776	-674.44397	210.53314	858.13415	-695.77657	-427.76315	567.68791	-507.68910	-427.27418	575.08965	-697.10643	-421.11925	578.29343	-518.27423	-416.01511	579.93160	-686.09525	
678	6.77000000	-123.62724	457.25584	-375.55303	-86.39786	360.50081	-373.13724	-275.70115	92.06185	-388.56618	-336.89621	57.17474	-438.64913	-162.31178	42.16253	-339.44531	-126.66597	73.09068	-390.94599	-123.05723	459.92434	-837.06217	-76.04352	368.60603	-831.30776	-263.51621	94.74291	-823.03109	-335.33339	49.32995	-769.03416	-164.44536	39.18361	-868.53202	-114.58294	67.90546	-819.41202	-137.25190	257.94038	-376.80374	-149.14329	386.96967	-340.80438	-206.01038	286.99511	-339.22005	-146.04351	413.83322	-867.74553	-200.04716	303.80566	-872.69189	-348.24209	609.39906	-399.76802	-245.40592	573.56830	-401.80193	-240.60628	515.99768	-361.39498	-386.32550	505.15838	-377.57300	-273.95901	471.45308	-375.69529	-310.95620	615.80267	-792.32446	-178.38713	574.65746	-797.18950	-346.94292	527.69166	-845.06810	-220.60479	482.06814	-838.13565	-318.82358	611.20243	-479.45917	-477.74368	727.70828	-558.70797	-325.94915	624.96071	-733.55380	-474.80235	728.61647	-652.80927	-152.54570	1033.95973	-591.82568	-75.09017	958.13021	-440.12032	-72.24038	956.63195	-728.17908	-79.80539	905.02073	-571.33146	-76.46959	910.41325	-610.50794	-0.39266	878.86044	-395.35366	64.44278	669.81481	-401.85288	85.11236	700.81757	-343.83953	126.56606	777.16074	-384.96864	161.86791	872.45952	-516.10496	205.07241	863.91065	-491.14713	0.78166	870.21482	-779.58507	70.39495	662.82856	-778.90788	84.35207	712.81738	-831.55505	116.93168	772.81707	-796.65472	165.14279	876.95304	-674.63169	210.53008	859.86169	-696.25296	-427.60304	568.03367	-508.00137	-427.07856	575.42078	-697.41911	-421.00105	578.55503	-518.61446	-415.75228	580.17536	-686.53857	
